<svg xmlns="http://www.w3.org/2000/svg" xmlns:xlink="http://www.w3.org/1999/xlink" id="body_1" width="683" height="683"><g transform="matrix(1.3339844 0 0 1.3339844 0 0)"><g transform="matrix(0.1 0 0 -0.1 0 512)"><path d="M2300 5110C 1823 5051 1381 4876 1016 4601C 888 4504 670 4293 567 4165C 257 3780 57 3299 11 2826C -46 2241 95 1651 408 1175C 823 541 1443 146 2216 23C 2370 -2 2731 -1 2890 24C 3377 99 3735 243 4080 501C 4775 1020 5144 1782 5117 2640C 5101 3145 4965 3570 4685 3990C 4285 4591 3620 5001 2885 5100C 2776 5115 2392 5121 2300 5110zM2800 4790C 3446 4712 4024 4354 4383 3810C 4522 3598 4638 3326 4696 3071C 4746 2850 4753 2421 4710 2198C 4651 1893 4540 1619 4373 1367C 4289 1239 4234 1174 4074 1010L4074 1010L3942 875L3946 820C 3950 766 3949 767 3921 860C 3884 985 3876 1003 3827 1084L3827 1084L3786 1153L3820 1179C 3883 1226 3940 1283 3991 1346C 4023 1386 4057 1416 4086 1430C 4147 1460 4182 1508 4188 1570C 4192 1612 4188 1627 4166 1661L4166 1661L4139 1701L4160 1797C 4180 1891 4180 1896 4164 2069L4164 2069L4148 2245L4099 2345C 4038 2470 3938 2606 3868 2659C 3796 2713 3621 2795 3535 2816C 3375 2854 3102 2814 2939 2729C 2842 2678 2720 2562 2626 2431C 2546 2319 2530 2285 2530 2224C 2530 2196 2516 2124 2499 2064C 2461 1931 2463 1901 2520 1788L2520 1788L2563 1703L2530 1657C 2500 1615 2498 1606 2502 1555C 2505 1515 2513 1493 2531 1474C 2555 1448 2623 1411 2648 1410C 2664 1410 2663 1440 2645 1484C 2622 1538 2636 1527 2666 1468C 2729 1342 2815 1248 2925 1183C 3049 1110 3223 1060 3354 1060C 3382 1060 3412 1055 3420 1049C 3431 1041 3410 1040 3345 1045C 3234 1053 3086 1081 3002 1110C 2968 1122 2933 1129 2925 1126C 2909 1120 2820 942 2796 869C 2783 828 2765 722 2745 563C 2741 534 2735 510 2732 510C 2728 510 2695 633 2658 783C 2591 1057 2505 1372 2450 1552L2450 1552L2420 1650L2352 1669C 2132 1733 2067 1750 2064 1747C 2062 1745 2088 1704 2121 1656C 2219 1515 2370 1186 2370 1113C 2370 1080 2362 1068 2288 999L2288 999L2205 922L2303 823C 2384 740 2400 719 2399 694C 2397 668 2397 667 2393 690C 2390 704 2343 758 2283 819L2283 819L2177 923L2264 1006C 2363 1101 2365 1110 2326 1212C 2265 1374 2124 1638 2048 1734C 2017 1774 2010 1791 2012 1819C 2015 1850 2021 1856 2080 1887C 2119 1906 2165 1941 2195 1973C 2235 2017 2258 2031 2310 2049C 2405 2080 2404 2077 2359 2144C 2337 2177 2321 2210 2322 2219C 2325 2236 2362 2247 2420 2249C 2482 2251 2485 2258 2455 2344C 2440 2386 2430 2426 2432 2431C 2434 2437 2473 2457 2518 2475C 2609 2512 2672 2548 2666 2559C 2663 2563 2621 2590 2571 2619C 2522 2648 2469 2685 2454 2701L2454 2701L2427 2729L2451 2739C 2464 2744 2518 2765 2570 2786C 2663 2822 2773 2880 2819 2917L2819 2917L2843 2936L2691 3000C 2608 3035 2540 3066 2540 3069C 2540 3072 2602 3137 2677 3212C 2752 3288 2812 3352 2809 3354C 2806 3357 2730 3371 2639 3385C 2549 3400 2469 3413 2462 3415C 2446 3421 2451 3431 2573 3643C 2622 3729 2661 3802 2658 3805C 2656 3807 2587 3785 2504 3756C 2422 3726 2341 3699 2323 3695C 2292 3689 2291 3690 2280 3729C 2265 3785 2251 3947 2250 4063L2250 4063L2250 4160L2198 4134C 2109 4089 2029 4030 1937 3941C 1888 3893 1846 3861 1841 3866C 1837 3871 1790 3929 1738 3995C 1623 4138 1563 4200 1556 4179C 1554 4171 1546 4127 1540 4081C 1522 3952 1471 3770 1453 3770C 1451 3770 1408 3787 1357 3809C 1254 3852 1183 3876 1127 3886L1127 3886L1089 3892L1106 3854C 1149 3753 1191 3622 1197 3569C 1202 3514 1201 3510 1182 3510C 1143 3510 795 3480 768 3474C 752 3471 740 3466 740 3463C 740 3460 778 3417 825 3368C 925 3261 990 3168 990 3131C 990 3105 981 3098 733 2916C 710 2899 690 2882 690 2878C 690 2874 709 2866 733 2860C 851 2829 882 2817 937 2776C 993 2735 1040 2683 1040 2663C 1040 2659 995 2610 940 2555C 885 2500 840 2450 840 2444C 840 2433 879 2417 1039 2363C 1068 2353 1094 2340 1097 2334C 1099 2328 1090 2273 1076 2212C 1061 2151 1050 2098 1050 2094C 1050 2090 1099 2090 1159 2093C 1284 2099 1273 2108 1286 1992C 1290 1958 1296 1928 1299 1925C 1308 1920 1410 1966 1410 1975C 1410 1979 1392 2012 1370 2049C 1348 2086 1317 2153 1300 2198C 1264 2298 1220 2509 1221 2576L1221 2576L1222 2625L1231 2570C 1262 2368 1305 2219 1367 2097C 1416 1998 1466 1949 1566 1900C 1623 1872 1650 1854 1650 1842C 1649 1788 1646 1786 1428 1715C 1295 1671 1215 1639 1209 1628C 1204 1619 1160 1473 1111 1303C 1062 1134 1017 984 1011 970C 1002 947 1001 948 1000 985C 1000 1020 990 1035 929 1105C 628 1448 433 1868 375 2300C 358 2422 356 2722 370 2859C 411 3243 591 3673 843 3985C 1209 4439 1751 4735 2320 4793C 2401 4802 2722 4799 2800 4790zM1535 1560C 1484 1441 1404 1224 1387 1157L1387 1157L1372 1100L1466 1013C 1518 965 1560 923 1560 919C 1560 914 1549 898 1535 883L1535 883L1511 855L1523 888C 1534 920 1534 920 1447 1008C 1392 1063 1360 1103 1360 1117C 1360 1170 1552 1661 1567 1646C 1569 1644 1555 1606 1535 1560z" stroke="none" fill="#000000" fill-rule="nonzero"></path></g></g></svg>